<svg xmlns="http://www.w3.org/2000/svg" width="19" height="13" viewBox="0 0 19 13" fill="none">
<g opacity="0.5" clip-path="url(#clip0_38470_104203)">
<path d="M12.8122 2.03906C13.0027 2.3883 13.1295 2.76911 13.1771 3.15011H15.0023C14.9547 2.76911 14.828 2.3883 14.6375 2.03906H12.8122ZM4.76829 3.17181C4.17239 3.17947 3.63701 3.30584 3.17563 3.52114C2.68351 3.75926 2.27018 4.0772 1.92092 4.47406C1.57168 4.87094 1.31767 5.33097 1.12717 5.85485C0.936673 6.37873 0.857422 6.9339 0.857422 7.5054C0.857422 8.1404 0.93703 8.72818 1.11167 9.25206C1.28627 9.7918 1.54068 10.2364 1.88992 10.6174C2.23916 10.9984 2.65109 11.2998 3.15909 11.5062C3.65121 11.7284 4.22285 11.8235 4.87371 11.8235C5.31823 11.8235 5.73118 11.7758 6.14392 11.6488C6.55668 11.5218 6.9216 11.3474 7.25496 11.1093C7.57246 10.8712 7.85814 10.5697 8.09626 10.2205C8.3185 9.87124 8.47811 9.47433 8.58925 9.02985H6.87463C6.71589 9.49021 6.46142 9.83907 6.14392 10.0613C5.82642 10.2836 5.39759 10.3951 4.87371 10.3951C4.49271 10.3951 4.15968 10.332 3.8898 10.205C3.60404 10.078 3.38231 9.88668 3.20767 9.66444C3.01717 9.44218 2.88949 9.18884 2.79425 8.88722C2.69899 8.60146 2.66713 8.28385 2.66713 7.96635H8.69984C8.76334 7.36311 8.73145 6.75915 8.57271 6.18765C8.41395 5.61615 8.17642 5.09322 7.84304 4.64872C7.4938 4.20422 7.0643 3.85407 6.5563 3.58419C6.0483 3.31431 5.46117 3.17181 4.82617 3.17181C4.80681 3.17181 4.78751 3.17159 4.76829 3.17181ZM13.145 4.49989C12.9863 4.94437 12.7158 5.26127 12.3348 5.45177C11.9538 5.64227 11.4776 5.73806 10.9219 5.73806H9.98555V6.89665C10.2554 6.89665 10.4782 6.9914 10.6687 7.1819C10.8592 7.3724 11.0974 7.65903 11.4149 8.07177L14.224 11.8018H16.225L12.4309 6.80156C13.0024 6.6428 13.5256 6.38881 14.0018 6.00781C14.4781 5.62681 14.796 5.13489 14.9548 4.49989H13.145ZM4.7962 4.60015C4.8061 4.60004 4.81625 4.60015 4.82617 4.60015C5.12779 4.60015 5.39796 4.66435 5.65196 4.79135C5.90596 4.91835 6.11191 5.07731 6.28655 5.26781C6.46115 5.45831 6.60472 5.69594 6.69996 5.94994C6.79522 6.21982 6.85837 6.48996 6.89013 6.77572H2.66713C2.66713 6.4741 2.73068 6.18778 2.8418 5.9179C2.95292 5.6639 3.09573 5.42627 3.28621 5.23577C3.47673 5.04527 3.69884 4.88595 3.95284 4.77481C4.1989 4.66717 4.4896 4.60399 4.7962 4.60015Z" fill="#E2E4E9"/>
<path d="M10.4628 0.691406H17.4319L16.9554 2.04121H9.98633L10.4628 0.691406Z" fill="#FF671F"/>
<path d="M10.4628 3.15234H17.4319L16.9554 4.50214H9.98633L10.4628 3.15234Z" fill="#21EB4B"/>
</g>
<defs>
<clipPath id="clip0_38470_104203">
<rect width="18" height="12" fill="white" transform="translate(0.144531 0.257812)"/>
</clipPath>
</defs>
</svg>
