<svg xmlns="http://www.w3.org/2000/svg" width="71" height="13" viewBox="0 0 71 13" fill="none">
<g opacity="0.7" clip-path="url(#clip0_38470_104186)">
<path d="M47.7519 0.256867C47.7335 0.256867 47.7137 0.259711 47.6952 0.259711C47.3521 0.271801 47.031 0.386824 46.7313 0.608335C46.4129 0.84336 46.2051 1.12852 46.1014 1.4647C46.1014 1.4647 44.6394 6.32837 44.6373 6.33371C44.5628 6.64109 44.6067 6.90242 44.7699 7.11007C44.8753 7.24713 45.0197 7.34118 45.1944 7.39665C45.2966 7.42847 45.4113 7.44642 45.5375 7.45176C45.5601 7.45176 57.2798 7.4546 57.2798 7.4546L56.5444 9.89799H43.559L42.8564 12.2409L55.8398 12.2422H57.1248C57.1516 12.2422 57.1797 12.2393 57.206 12.2377C57.5408 12.2225 57.8562 12.1121 58.154 11.8989C58.4757 11.6721 58.6878 11.3897 58.7899 11.0534C58.7899 11.0534 60.2342 6.24659 60.2388 6.22597C60.3149 5.92144 60.2711 5.66277 60.1049 5.45103C59.9273 5.22294 59.6564 5.10934 59.2928 5.10934H47.595L48.3539 2.59928H61.3332L62.0383 0.259711L47.7519 0.256867Z" fill="#E2E4E9"/>
<path d="M3.87069 12.2422H1.28027L4.88332 0.271977H7.47587L3.87069 12.2422Z" fill="#E2E4E9"/>
<path d="M26.4292 0.272492L15.6081 8.67823L11.8355 2.9294L10.0902 0.272492H10.0437L9.22107 3.00122L6.44043 12.2427H9.03102L10.9814 5.76462L15.1134 12.2578L21.9541 6.51022L20.2375 12.2427H22.8295L25.359 3.84105L26.434 0.272492H26.4292Z" fill="#E2E4E9"/>
<path d="M43.9338 0.601403C43.7555 0.371714 43.4788 0.257047 43.1023 0.257047H28.8551L28.1491 2.60213L41.1087 2.59946L40.3545 5.10525L27.4007 5.11059L25.2451 12.2422H27.8384L29.2825 7.44785H40.9378C41.3007 7.44785 41.6431 7.33425 41.967 7.10616C42.2865 6.87771 42.4993 6.5954 42.6001 6.2594L44.0429 1.46488C44.1499 1.11607 44.1114 0.829849 43.9338 0.601403Z" fill="#E2E4E9"/>
<path d="M66.9259 0.306458L70.1901 6.27947L63.3271 12.25L66.9259 0.306458Z" fill="#298D3E"/>
<path d="M64.6375 0.306458L67.8997 6.27947L61.0332 12.25L64.6375 0.306458Z" fill="#F36817"/>
</g>
<defs>
<clipPath id="clip0_38470_104186">
<rect width="70" height="12" fill="white" transform="translate(0.144531 0.257812)"/>
</clipPath>
</defs>
</svg>
