<svg xmlns="http://www.w3.org/2000/svg" width="49" height="13" viewBox="0 0 49 13" fill="none">
<g opacity="0.7">
<path d="M36.8447 12.207H34.2676L37.8518 0.260168H40.429L36.8447 12.207Z" fill="#E2E4E9"/>
<path d="M35.5069 0.638068C35.3282 0.410738 35.0527 0.296024 34.6783 0.296024H20.5068L19.8049 2.63593H22.3835V2.63458H32.697L31.9467 5.13509H21.6329L21.6338 5.12991H19.0563L16.917 12.2578H19.4959L20.9315 7.47364H32.525C32.887 7.47364 33.2278 7.35967 33.5483 7.13172C33.8681 6.90353 34.0786 6.62217 34.1795 6.28617L35.615 1.50101C35.7198 1.15379 35.6836 0.865645 35.5069 0.638068Z" fill="#E2E4E9"/>
<path d="M15.4155 11.4575C15.2732 11.9306 14.8065 12.2578 14.2744 12.2578H0.977624C0.615304 12.2578 0.346003 12.1438 0.168919 11.9161C-0.00803144 11.6882 -0.0459873 11.4062 0.0551844 11.0703L3.29963 0.291339H5.87917L2.98128 9.91864H13.2997L16.1976 0.291339H18.7766L15.4155 11.4575Z" fill="#E2E4E9"/>
<path d="M44.8814 0.281594L48.1442 6.27051L41.2852 12.2578L44.8814 0.281594Z" fill="#27803B"/>
<path d="M42.5926 0.281594L45.8531 6.27051L38.9912 12.2578L42.5926 0.281594Z" fill="#E9661C"/>
</g>
</svg>
